<?xml version="1.0"?>
<svg viewBox="-20 0 140 140" xmlns="http://www.w3.org/2000/svg" xmlns:xlink="http://www.w3.org/1999/xlink">
	<defs>
		<g id="leaf">
			<ellipse cx="0" cy="-8" rx="7" ry="11" fill="green" stroke="black" />
			<line x1="0" y1="2" x2="0" y2="-8" stroke="black" />
		</g>
	</defs>
	<use xlink:href="#leaf" x="50" y="22" />
	<use xlink:href="#leaf" transform="translate(30 22) rotate(-45 0 0)" />
	<use xlink:href="#leaf" transform="translate(70 22) rotate(45 0 0)" />

	<g fill="saddlebrown">
		<rect x="0" y="70" width="100" height="20" stroke="black" rx="15" />
		<path d="M 30 65 q -15 -5 -10 -20 q -15 -8 0 -16 q 30 -25 60 0 q 15 8 0 16 q 5 15 -10 20 q 20 30 0 50 l 10 15 q 2 12 -10 10 l -10 -15 q -10 2 -20 0 l -10 15 q -12 2 -10 -10 l 10 -15 q -20 -20 0 -50 z" stroke="black" />
	</g>
	<circle cx="40" cy="35" r="8" fill="white" stroke="black" />
	<circle cx="60" cy="35" r="8" fill="white" stroke="black" />
	<circle cx="40" cy="35" r="4" fill="black" />
	<circle cx="60" cy="35" r="4" fill="black" />
</svg>
