<?xml version="1.0"?>
<svg width="100" height="100" xmlns="http://www.w3.org/2000/svg" xmlns:xlink="http://www.w3.org/1999/xlink">
	<defs>
		<g id="spike">
			<path d="M -15 0 l 15 -45 l 15 45 z" fill="white" stroke="black" />
		</g>
	</defs>

	<use xlink:href="#spike" transform="translate(50,50) rotate(0,0,0)" />
	<use xlink:href="#spike" transform="translate(50,50) rotate(20,0,0)" />
	<use xlink:href="#spike" transform="translate(50,50) rotate(40,0,0)" />
	<use xlink:href="#spike" transform="translate(50,50) rotate(60,0,0)" />
	<use xlink:href="#spike" transform="translate(50,50) rotate(80,0,0)" />
	<use xlink:href="#spike" transform="translate(50,50) rotate(100,0,0)" />
	<use xlink:href="#spike" transform="translate(50,50) rotate(120,0,0)" />
	<use xlink:href="#spike" transform="translate(50,50) rotate(140,0,0)" />
	<use xlink:href="#spike" transform="translate(50,50) rotate(160,0,0)" />
	<use xlink:href="#spike" transform="translate(50,50) rotate(180,0,0)" />
	<use xlink:href="#spike" transform="translate(50,50) rotate(200,0,0)" />
	<use xlink:href="#spike" transform="translate(50,50) rotate(220,0,0)" />
	<use xlink:href="#spike" transform="translate(50,50) rotate(240,0,0)" />
	<use xlink:href="#spike" transform="translate(50,50) rotate(260,0,0)" />
	<use xlink:href="#spike" transform="translate(50,50) rotate(280,0,0)" />
	<use xlink:href="#spike" transform="translate(50,50) rotate(300,0,0)" />
	<use xlink:href="#spike" transform="translate(50,50) rotate(320,0,0)" />
	<use xlink:href="#spike" transform="translate(50,50) rotate(340,0,0)" />

	<circle cx="50" cy="50" r="30" fill="white" stroke="black" />

	<!-- Eyes -->
	<circle cx="35" cy="45" r="10" fill="white" stroke="black" />
	<circle cx="65" cy="45" r="10" fill="white" stroke="black" />
	<circle cx="35" cy="45" r="4" fill="black" />
	<circle cx="65" cy="45" r="4" fill="black" />
</svg>
