<?xml version="1.0"?>
<svg xmlns="http://www.w3.org/2000/svg" xmlns:xlink="http://www.w3.org/1999/xlink" viewBox="-10 0 120 120">
	<defs>
		<g id="leaf">
			<ellipse cx="0" cy="-8" rx="7" ry="11" fill="green" stroke="black" />
			<line x1="0" y1="2" x2="0" y2="-8" stroke="black" />
		</g>
	</defs>

	<use xlink:href="#leaf" x="50" y="20" />
	<use xlink:href="#leaf" transform="translate(30 20) rotate(-45 0 0)" />
	<use xlink:href="#leaf" transform="translate(70 20) rotate(45 0 0)" />

	<path d="M 30 20 L 70 20 l 0 20 l 20 0 l 0 20 l -20 0 l 0 20 l -40 0 l 0 -20 l -20 0 l 0 -20 l 20 0 z" fill="red" stroke="black"/>

	<!-- Eyes -->
	<circle cx="40" cy="30" r="6" fill="white" stroke="black" />
	<circle cx="40" cy="30" r="2" fill="black" />
	<circle cx="60" cy="30" r="6" fill="white" stroke="black" />
	<circle cx="60" cy="30" r="2" fill="black" />
	
	<!-- Legs -->
	<g fill="blue">
		<path d="M 30 80 l 20 0 l 0 40 l -40 0 l 0 -20 l 20 0 l 0 -20" stroke="black" />
		<path d="M 70 80 l -20 0 l 0 40 l 40 0 l 0 -20 l -20 0 l 0 -20" stroke="black" />
	</g>
</svg>
